<?xml version="1.0" encoding="utf-8"?>
<!-- Generator: Adobe Illustrator 23.0.1, SVG Export Plug-In . SVG Version: 6.00 Build 0)  -->
<svg version="1.1" xmlns="http://www.w3.org/2000/svg" xmlns:xlink="http://www.w3.org/1999/xlink" x="0px" y="0px"
	 viewBox="0 0 300 300" style="enable-background:new 0 0 300 300;" xml:space="preserve">
<style type="text/css">
	.st0{display:none;}
	.st1{display:inline;}
	.st2{fill:#6F4128;}
	.st3{fill:#B37F30;stroke:#F6905B;stroke-miterlimit:10;}
	.st4{fill:#FFFFFF;stroke:#F6905B;stroke-miterlimit:10;}
	.st5{fill:#F6905B;}
	.st6{fill:#F6905B;stroke:#F6905B;stroke-miterlimit:10;}
	.st7{stroke:#F6905B;stroke-miterlimit:10;}
</style>
<g id="Layer_11" class="st0">
	<rect x="0.5" class="st1" width="299.5" height="299.5"/>
</g>
<g id="Layer_1" class="st0">
	<g id="Layer_10" class="st1">
	</g>
</g>
<g id="Layer_2">
</g>
<g id="Layer_4">
	<path class="st2" d="M149.97,150.02v139.92c0,0,140.37,0,140.37-139.92H149.97z"/>
</g>
<g id="Layer_6">
	<rect x="79.97" y="149.72" class="st2" width="70" height="140.22"/>
</g>
<g id="Layer_5">
	<polygon class="st2" points="149.89,149.79 290.11,149.79 149.89,80.02 	"/>
</g>
<g id="Layer_3">
	<line class="st3" x1="149.89" y1="0" x2="149.89" y2="300"/>
	<line class="st4" x1="0.5" y1="149.89" x2="300.5" y2="149.89"/>
</g>
<g id="Layer_8">
	<polygon class="st5" points="300,150 293.81,146.41 293.81,152.78 	"/>
	<polygon class="st6" points="150.41,0 146.81,6.19 153.19,6.19 	"/>
	<polygon class="st5" points="149.48,300 153.07,293.81 146.7,293.81 	"/>
	<polygon class="st6" points="0.5,149.19 6.68,152.78 6.68,146.41 	"/>
</g>
<g id="Layer_9">
	<path class="st4" d="M220,146.41l0.11,6.37L220,146.41z"/>
	<path class="st7" d="M290.03,146.41l0.11,6.37L290.03,146.41z"/>
	<path class="st7" d="M80.03,146.81l0.11,6.37L80.03,146.81z"/>
	<path class="st7" d="M9.83,146.81l0.11,6.37L9.83,146.81z"/>
	<path class="st7" d="M146.5,79.97l6.37-0.11L146.5,79.97z"/>
	<path class="st7" d="M146.5,9.97l6.37-0.11L146.5,9.97z"/>
	<path class="st4" d="M146.67,219.95l6.37-0.11L146.67,219.95z"/>
	<path class="st7" d="M146.67,290.19l6.37-0.11L146.67,290.19z"/>
</g>
<g id="Layer_7">
</g>
</svg>
